<svg width="174" height="22" viewBox="0 0 174 22" fill="none" xmlns="http://www.w3.org/2000/svg">
<path d="M23.6205 0.513184H28.87V4.01762C29.9371 1.73319 31.9893 0.550028 35.1497 0.550028C39.5701 0.550028 42.9479 3.8252 42.9479 8.97951V21.503H37.6123V10.2773C37.6123 6.73602 35.8351 5.20077 33.1878 5.20077C30.9386 5.20077 28.9275 6.73602 28.9275 10.2773V21.503H23.5918L23.6205 0.513184Z" fill="#7661FE"/>
<path d="M145.803 0.513184H151.057V4.01762C152.12 1.73319 154.176 0.550028 157.332 0.550028C161.757 0.550028 165.151 3.8252 165.151 8.97951V21.503H159.815V10.2773C159.815 6.73602 158.038 5.20077 155.395 5.20077C153.146 5.20077 151.131 6.73602 151.131 10.2773V21.503H145.795L145.803 0.513184Z" fill="#7661FE"/>
<path d="M0 11.0387C0 5.27029 4.47375 0.541748 10.6713 0.541748C16.8689 0.541748 21.3426 5.27029 21.3426 11.0387C21.3426 16.8071 16.8689 21.4988 10.6713 21.4988C4.47375 21.4988 0 16.7948 0 11.0387ZM10.6713 16.7703C13.9876 16.7703 16.1465 14.1542 16.1465 11.0387C16.1465 7.92318 13.9876 5.27029 10.6713 5.27029C7.355 5.27029 5.19611 7.92318 5.19611 11.0387C5.19611 14.1542 7.36321 16.7703 10.6795 16.7703H10.6713Z" fill="#7661FE"/>
<path d="M44.6802 11.0389C44.6802 5.27045 49.039 0.500977 55.0519 0.500977C61.0648 0.500977 65.2307 5.27045 65.2307 11.0389C65.2326 11.6577 65.1804 12.2755 65.0747 12.8852H50.0774C50.6561 15.2311 52.4292 16.885 55.0519 16.885C56.033 16.9027 57.0016 16.6632 57.8609 16.1905C58.7201 15.7178 59.4399 15.0284 59.9484 14.1912L63.9953 17.2289C62.3781 19.7304 59.0249 21.4989 55.0519 21.4989C48.8461 21.4867 44.6802 16.795 44.6802 11.0389ZM60.0017 8.99187C59.423 6.76065 57.5391 4.95522 54.9903 4.95522C52.5277 4.95522 50.6725 6.5928 50.0938 8.99187H60.0017Z" fill="#7661FE"/>
<path d="M65.4604 17.9985L68.9697 14.8093C70.4349 16.4469 71.9741 17.2657 73.6733 17.2657C75.4463 17.2657 76.4478 16.3814 76.4478 15.1901C76.4478 14.1502 75.9471 13.573 72.7867 12.8442C67.4264 11.5751 66.6302 9.15967 66.6302 6.61322C66.6302 3.11287 69.4047 0.496826 74.1083 0.496826C77.3467 0.496826 79.5056 1.31562 81.5495 3.96032L77.7694 6.8261C76.809 5.29086 75.5736 4.67268 74.2232 4.67268C72.799 4.67268 71.7196 5.21308 71.7196 6.44127C71.7196 7.13315 72.0274 7.75134 74.4162 8.36544C80.2361 9.86383 81.5865 12.0173 81.5865 15.0181C81.5865 18.7027 78.2332 21.4784 73.7882 21.4784C70.3939 21.4866 67.6563 20.3321 65.4604 17.9985Z" fill="#7661FE"/>
<path d="M82.8467 11.0389C82.8467 5.27045 87.2014 0.500977 93.2184 0.500977C99.2354 0.500977 103.397 5.27045 103.397 11.0389C103.399 11.6577 103.347 12.2755 103.241 12.8852H88.2439C88.8226 15.2311 90.5957 16.885 93.2184 16.885C94.1994 16.9019 95.1676 16.662 96.0267 16.1894C96.8859 15.7168 97.6058 15.0278 98.1149 14.1912L102.162 17.2289C100.545 19.7304 97.1873 21.4989 93.2184 21.4989C87.0126 21.4867 82.8467 16.795 82.8467 11.0389ZM98.1723 8.99187C97.5936 6.76065 95.7097 4.95522 93.1609 4.95522C90.6983 4.95522 88.8431 6.5928 88.2644 8.99187H98.1723Z" fill="#7661FE"/>
<path d="M123.25 11.0389C123.25 5.27045 127.605 0.500977 133.622 0.500977C139.639 0.500977 143.796 5.27045 143.796 11.0389C143.8 11.6576 143.749 12.2754 143.645 12.8852H128.647C129.226 15.2311 130.999 16.885 133.622 16.885C134.602 16.902 135.57 16.6622 136.428 16.1895C137.287 15.7168 138.006 15.0278 138.514 14.1912L142.565 17.2289C140.944 19.7304 137.591 21.4989 133.622 21.4989C127.412 21.4867 123.25 16.795 123.25 11.0389ZM138.555 8.99187C137.976 6.76065 136.093 4.95522 133.544 4.95522C131.081 4.95522 129.226 6.5928 128.647 8.99187H138.555Z" fill="#7661FE"/>
<path d="M167.158 18.101C167.162 17.6531 167.255 17.2104 167.432 16.7987C167.609 16.3871 167.866 16.0147 168.189 15.7033C168.512 15.392 168.894 15.1479 169.312 14.9853C169.731 14.8227 170.177 14.7448 170.626 14.7562C171.521 14.7562 172.379 15.1108 173.012 15.7419C173.645 16.373 174 17.229 174 18.1215C174 19.014 173.645 19.87 173.012 20.5011C172.379 21.1322 171.521 21.4867 170.626 21.4867C170.174 21.4971 169.725 21.4172 169.304 21.2516C168.883 21.0861 168.5 20.8383 168.177 20.5228C167.854 20.2073 167.597 19.8305 167.422 19.4146C167.247 18.9987 167.158 18.5521 167.158 18.101Z" fill="#7661FE"/>
<path d="M102.375 0.529541H108.532L112.546 12.4962C112.908 13.588 113.19 14.7045 113.391 15.8369C113.593 14.7044 113.877 13.5879 114.241 12.4962L118.283 0.529541H124.342L115.993 21.4784H110.748L102.375 0.529541Z" fill="#7661FE"/>
</svg>
